<?xml version="1.0" standalone="no"?>
<!DOCTYPE svg PUBLIC "-//W3C//DTD SVG 20010904//EN"
 "http://www.w3.org/TR/2001/REC-SVG-20010904/DTD/svg10.dtd">
<svg version="1.0" xmlns="http://www.w3.org/2000/svg"
 width="260.000000pt" height="260.000000pt" viewBox="0 0 260.000000 260.000000"
 preserveAspectRatio="xMidYMid meet">
<metadata>
Created by potrace 1.11, written by Peter Selinger 2001-2013
</metadata>
<g transform="translate(0.000000,260.000000) scale(0.100000,-0.100000)"
fill="#000000" stroke="none">
<path d="M295 2040 l0 -170 247 0 248 0 0 170 0 170 -248 0 -247 0 0 -170z"/>
<path d="M838 2203 c-2 -5 -4 -415 -3 -913 l0 -905 221 -3 221 -2 1 915 0 915
-218 0 c-121 0 -220 -3 -222 -7z"/>
<path d="M1320 2040 l0 -170 255 0 255 0 0 170 0 170 -255 0 -255 0 0 -170z"/>
<path d="M1870 1295 l0 -915 220 0 220 0 0 915 0 915 -220 0 -220 0 0 -915z"/>
</g>
</svg>
