<svg version="1.1" width="4000" height="1000" xmlns="http://www.w3.org/2000/svg">
<rect x="0" y="0" width="4000" height="1000" fill="#1c1c1c" />
<g transform="scale(15.625, 15.625)">
<path d="M 33.0681 9.15273 L 63.1917 -16 L 172.213 3.86554 L 102.95 79 Z" fill="#3c3c3c" fill-opacity="0.501961" />
<path d="M 171.656 67.9154 L 208.661 -16 L 271 4.26912 L 255.842 69.7093 Z" fill="#000000" fill-opacity="0.501961" />
<path d="M 194.402 59.5043 L 153.608 78.8466 L 185.524 -0.06386 L 213.823 -1.49395 Z" fill="#151515" fill-opacity="0.501961" />
<path d="M 146.796 -6.21587 L 115.436 30.6705 L 73.2793 26.2101 L 63.0769 -11.0579 Z" fill="#3a3a3a" fill-opacity="0.501961" />
<path d="M 105.931 19.9308 L 125.594 0.531942 L 74.3758 -4.30159 L 86.1767 13.4023 Z" fill="#373737" fill-opacity="0.501961" />
<path d="M 51.8396 -5.76687 L 120.467 35.7119 L 105.062 40.3526 L 71.6821 30.3263 Z" fill="#303030" fill-opacity="0.501961" />
<path d="M 144.542 58.7475 L 79.6193 79 L 33.6559 32.4098 L 22.8869 -3.79132 Z" fill="#252525" fill-opacity="0.501961" />
<path d="M 47.7215 79 L 1.70675 -3.21322 L -16 64.2462 L 21.4656 69.2974 Z" fill="#0a0a0a" fill-opacity="0.501961" />
<path d="M -4.05572 -13.7029 L 9.06664 -8.17763 L 53.5628 79 L 17.1292 49.5896 Z" fill="#171717" fill-opacity="0.501961" />
<path d="M 93.4041 18.3352 L 52.3898 13.6187 L 88.8606 45.8528 L 118.586 27.3716 Z" fill="#313131" fill-opacity="0.501961" />
<path d="M 104.122 32.889 L 60.8663 -7.43125 L 63.1616 9.73247 L 87.8905 36.8822 Z" fill="#313131" fill-opacity="0.501961" />
<path d="M 74.9114 12.3217 L 72.4848 7.57932 L 76.4582 12.3587 L 70.5237 7.04209 Z" fill="#313131" fill-opacity="0.501961" />
<path d="M 76.1179 18.2656 L 72.6407 -6.19473 L 85.2137 7.41555 L 103.385 25.7129 Z" fill="#343434" fill-opacity="0.501961" />
<path d="M 70.1925 7.26732 L 83.6963 6.43415 L 73.1757 10.3383 L 73.5 9.48912 Z" fill="#333333" fill-opacity="0.501961" />
<path d="M 153.636 52.6403 L 176.61 12.432 L 172.553 -14.1354 L 93.6424 69.8718 Z" fill="#242424" fill-opacity="0.501961" />
<path d="M 170.157 52.6768 L 148.759 62.6883 L 180.042 75.5755 L 209.228 -16 Z" fill="#151515" fill-opacity="0.501961" />
<path d="M 271 10.2208 L 239.261 -13.1662 L 209.462 76.4844 L 252.219 79 Z" fill="#000000" fill-opacity="0.501961" />
<path d="M 271 23.2646 L 260.257 61.7857 L 233.347 73.5479 L 254.555 0.845044 Z" fill="#020202" fill-opacity="0.501961" />
<path d="M 140.311 -16 L 141.395 25.6542 L 130.624 30.8945 L 106.445 33.4577 Z" fill="#303030" fill-opacity="0.501961" />
<path d="M 132.125 21.4605 L 130.745 -1.18788 L 113.054 13.7638 L 75.1614 21.5761 Z" fill="#333333" fill-opacity="0.501961" />
<path d="M 127.215 10.3781 L 107.793 35.6802 L 127.571 23.8173 L 145.349 -3.83268 Z" fill="#303030" fill-opacity="0.501961" />
<path d="M 121.64 19.4037 L 120.553 14.5708 L 128.257 24.2655 L 104.656 27.2754 Z" fill="#313131" fill-opacity="0.501961" />
<path d="M 121 20 L 119.006 24.548 L 119.108 21.7877 L 119.502 15.851 Z" fill="#323232" fill-opacity="0.501961" />
<path d="M 107.677 12.0944 L 121 20 L 118.13 21.0403 L 120.552 17.3423 Z" fill="#333333" fill-opacity="0.501961" />
<path d="M 121 20 L 120.464 26.7669 L 117.113 22.2082 L 119.598 12.677 Z" fill="#323232" fill-opacity="0.501961" />
<path d="M 113.714 8.14025 L 114.386 -16 L 81.7414 -4.11722 L 94.5703 11.7983 Z" fill="#373737" fill-opacity="0.501961" />
<path d="M 91.33 24.9763 L 104.458 10.0396 L 94.5986 9.20057 L 86.7556 -0.496475 Z" fill="#353535" fill-opacity="0.501961" />
<path d="M 100.151 7.47935 L 105.381 7.92261 L 116.252 -13.5804 L 91.225 0.514465 Z" fill="#383838" fill-opacity="0.501961" />
<path d="M 107.429 55.3091 L 27.5346 22.401 L 104.813 79 L 181.59 9.83008 Z" fill="#242424" fill-opacity="0.501961" />
<path d="M 87.4144 49.1439 L 47.3752 16.2283 L 91.5876 36.0744 L 135.732 40.8543 Z" fill="#2c2c2c" fill-opacity="0.501961" />
<path d="M 57.1546 8.52682 L 69.014 30.4343 L 95.4961 42.0379 L 113.369 43.02 Z" fill="#2e2e2e" fill-opacity="0.501961" />
<path d="M 79.1417 48.7029 L 104.362 55.141 L 83.5695 37.525 L 89.0211 24.1473 Z" fill="#292929" fill-opacity="0.501961" />
<path d="M 71.2382 17.6037 L 92.1848 28.8983 L 82.6135 34.9436 L 84.4689 37.7536 Z" fill="#303030" fill-opacity="0.501961" />
<path d="M 64 7 L 64.7152 11.4299 L 61.2349 9.63626 L 65.6106 4.79363 Z" fill="#2e2e2e" fill-opacity="0.501961" />
<path d="M 81.7697 28.1816 L 61.2171 -2.20344 L 78.7421 -13.5068 L 65.2589 13.6303 Z" fill="#303030" fill-opacity="0.501961" />
<path d="M 64 7 L 74.6817 9.46937 L 60.2087 -5.52687 L 66.0793 3.96305 Z" fill="#313131" fill-opacity="0.501961" />
<path d="M 64 7 L 60.3491 -1.14588 L 58.4501 -2.55099 L 61.3351 3.34229 Z" fill="#2e2e2e" fill-opacity="0.501961" />
<path d="M 64 7 L 72.1289 3.55388 L 66.0194 7.38445 L 65.4102 10.767 Z" fill="#303030" fill-opacity="0.501961" />
<path d="M 64 7 L 67.8428 7.79879 L 69.5395 1.34279 L 68.1781 13.0407 Z" fill="#303030" fill-opacity="0.501961" />
<path d="M 37.4243 22.1569 L 30.8207 -6.46588 L 49.7611 -2.39894 L 75.1655 61.7019 Z" fill="#262626" fill-opacity="0.501961" />
<path d="M 43.8033 21.4242 L 34.1359 17.013 L 26.2788 -16 L 48.2134 1.47874 Z" fill="#232323" fill-opacity="0.501961" />
<path d="M 66.1805 39.8512 L 42.2921 7.15772 L 30.5936 -12.4211 L 53.7175 -11.7144 Z" fill="#2a2a2a" fill-opacity="0.501961" />
<path d="M 23.0191 14.2977 L 38.0303 11.5812 L 44.9345 1.73185 L 38.4484 5.37417 Z" fill="#212121" fill-opacity="0.501961" />
<path d="M 32.0322 1.23181 L 46.2527 -1.01508 L 42.9021 11.3154 L 44.0102 10.4916 Z" fill="#252525" fill-opacity="0.501961" />
<path d="M 43.0638 14.7828 L 40.2367 -7.33344 L 48.6728 12.6338 L 54.059 9.76294 Z" fill="#272727" fill-opacity="0.501961" />
<path d="M 44 5 L 41.3801 9.34682 L 38.7616 7.09984 L 48.1313 -6.43628 Z" fill="#262626" fill-opacity="0.501961" />
<path d="M 45.2438 0.131792 L 47.1309 7.85172 L 47.9902 5.12525 L 44 5 Z" fill="#272727" fill-opacity="0.501961" />
<path d="M 45.4321 -0.037366 L 38.5716 5.02582 L 54.2864 8.10466 L 42.84 5.59581 Z" fill="#272727" fill-opacity="0.501961" />
<path d="M 10.878 50.4734 L 25.8622 69.0258 L -15.7116 64.6604 L 1.26463 27.676 Z" fill="#0b0b0b" fill-opacity="0.501961" />
<path d="M 25.5394 66.4813 L 15.349 79 L -0.606145 22.3057 L 10.2731 41.0866 Z" fill="#111111" fill-opacity="0.501961" />
<path d="M 19.6346 51.8953 L 20.8876 47.8305 L 10.203 51.5407 L 18.282 49.5466 Z" fill="#121212" fill-opacity="0.501961" />
<path d="M 9.43762 53.1449 L 18.4774 58.0481 L 7.77738 47.0535 L 12.7285 49.8917 Z" fill="#111111" fill-opacity="0.501961" />
<path d="M 9.53693 61.4509 L 0.215513 46.1585 L -6.99094 63.9035 L 15.313 63.4523 Z" fill="#0b0b0b" fill-opacity="0.501961" />
<path d="M 12 50 L 19.6207 45.9355 L 8.29241 51.1565 L 16.6513 47.0194 Z" fill="#121212" fill-opacity="0.501961" />
</g>
</svg>
