<svg version="1.1" width="4000" height="1000" xmlns="http://www.w3.org/2000/svg">
<rect x="0" y="0" width="4000" height="1000" fill="#414141" />
<g transform="scale(15.625, 15.625)">
<path d="M 251 79 L 116 22 L 269 -16 Z" fill="#000000" fill-opacity="0.501961" />
<path d="M 9 79 L 135 -16 L -16 2 Z" fill="#aaaaaa" fill-opacity="0.501961" />
<path d="M 21 60 L 98 -16 L 118 78 Z" fill="#6b6b6b" fill-opacity="0.501961" />
<path d="M 198 79 L 115 25 L 195 -16 Z" fill="#242424" fill-opacity="0.501961" />
<path d="M 271 62 L 153 64 L 249 -16 Z" fill="#000000" fill-opacity="0.501961" />
<path d="M 168 14 L 46 -16 L 112 68 Z" fill="#484848" fill-opacity="0.501961" />
<path d="M 151 79 L 209 38 L 124 32 Z" fill="#2c2c2c" fill-opacity="0.501961" />
<path d="M -16 66 L 4 -12 L 77 66 Z" fill="#8e8e8e" fill-opacity="0.501961" />
<path d="M 1 79 L 18 24 L 0 -16 Z" fill="#919191" fill-opacity="0.501961" />
<path d="M 8 79 L -9 60 L 18 42 Z" fill="#8c8c8c" fill-opacity="0.501961" />
<path d="M 3 64 L 0 42 L -4 71 Z" fill="#909090" fill-opacity="0.501961" />
<path d="M 74 -16 L 25 44 L 93 79 Z" fill="#696969" fill-opacity="0.501961" />
<path d="M 229 2 L 127 -16 L 159 23 Z" fill="#191919" fill-opacity="0.501961" />
<path d="M 160 79 L 130 3 L 178 -16 Z" fill="#313131" fill-opacity="0.501961" />
<path d="M 133 -16 L 139 55 L 80 -9 Z" fill="#464646" fill-opacity="0.501961" />
<path d="M 135 79 L 124 1 L 156 -10 Z" fill="#393939" fill-opacity="0.501961" />
<path d="M 189 -3 L 163 79 L 162 -2 Z" fill="#242424" fill-opacity="0.501961" />
<path d="M 271 61 L 251 -16 L 212 67 Z" fill="#000000" fill-opacity="0.501961" />
<path d="M 256 -16 L 186 -4 L 264 79 Z" fill="#030303" fill-opacity="0.501961" />
<path d="M 270 47 L 239 79 L 251 -16 Z" fill="#000000" fill-opacity="0.501961" />
<path d="M 249 65 L 235 71 L 246 17 Z" fill="#040404" fill-opacity="0.501961" />
<path d="M 263 57 L 252 64 L 252 57 Z" fill="#000000" fill-opacity="0.501961" />
<path d="M 196 79 L 225 15 L 178 -16 Z" fill="#161616" fill-opacity="0.501961" />
<path d="M 196 2 L 199 74 L 232 59 Z" fill="#121212" fill-opacity="0.501961" />
<path d="M 189 79 L 174 58 L 203 45 Z" fill="#1e1e1e" fill-opacity="0.501961" />
<path d="M 195 -16 L 209 59 L 184 63 Z" fill="#191919" fill-opacity="0.501961" />
<path d="M 201 79 L 204 35 L 220 59 Z" fill="#111111" fill-opacity="0.501961" />
<path d="M 190 79 L 174 39 L 193 -16 Z" fill="#1e1e1e" fill-opacity="0.501961" />
<path d="M 240 38 L 219 79 L 216 -16 Z" fill="#0b0b0b" fill-opacity="0.501961" />
</g>
</svg>
