<?xml version="1.0" encoding="UTF-8" standalone="no"?>
<!-- Generator: Adobe Illustrator 22.0.1, SVG Export Plug-In . SVG Version: 6.00 Build 0)  -->

<svg
   xmlns:dc="http://purl.org/dc/elements/1.1/"
   xmlns:cc="http://creativecommons.org/ns#"
   xmlns:rdf="http://www.w3.org/1999/02/22-rdf-syntax-ns#"
   xmlns:svg="http://www.w3.org/2000/svg"
   xmlns="http://www.w3.org/2000/svg"
   xmlns:sodipodi="http://sodipodi.sourceforge.net/DTD/sodipodi-0.dtd"
   xmlns:inkscape="http://www.inkscape.org/namespaces/inkscape"
   version="1.1"
   id="Layer_1"
   x="0px"
   y="0px"
   viewBox="0 0 463.10002 454.49999"
   style="fill:#ffffff;stroke:#ffffff"
   xml:space="preserve"
   sodipodi:docname="logo.svg"
   width="463.10001"
   height="454.5"
   inkscape:version="0.92.2 5c3e80d, 2017-08-06"><metadata
     id="metadata276"><rdf:RDF><cc:Work
         rdf:about=""><dc:format>image/svg+xml</dc:format><dc:type
           rdf:resource="http://purl.org/dc/dcmitype/StillImage" /><dc:title></dc:title></cc:Work></rdf:RDF></metadata><defs
     id="defs274" /><sodipodi:namedview
     pagecolor="#ffffff"
     bordercolor="#666666"
     borderopacity="1"
     objecttolerance="10"
     gridtolerance="10"
     guidetolerance="10"
     inkscape:pageopacity="0"
     inkscape:pageshadow="2"
     inkscape:window-width="1281"
     inkscape:window-height="706"
     id="namedview272"
     showgrid="false"
     fit-margin-top="0"
     fit-margin-left="0"
     fit-margin-right="0"
     fit-margin-bottom="0"
     inkscape:zoom="0.58914359"
     inkscape:cx="230.84999"
     inkscape:cy="201.34998"
     inkscape:window-x="0"
     inkscape:window-y="0"
     inkscape:window-maximized="0"
     inkscape:current-layer="Layer_1" /><style
     type="text/css"
     id="style237">
	.st0{stroke-width:6;stroke-miterlimit:10;}
	.st1{fill:none;}
	.st2{display:none;}
	.st3{font-family:'JuliusSansOne-Regular';}
	.st4{font-size:110px;}
</style><g
     id="g253"
     transform="translate(-66.8,-167.8)"><line
       class="st0"
       x1="297.60001"
       y1="167.8"
       x2="297.60001"
       y2="622.29999"
       id="line239"
       style="stroke-width:6;stroke-miterlimit:10" /><g
       id="g245"><g
         id="g243"><path
           d="m 120.5,227.4 c 37.5,0 75.1,0 112.6,0 62.4,0 124.8,0 187.1,0 18.2,0 36.4,0 54.6,0 2.3,0 2.3,-3.5 0,-3.5 -37.5,0 -75.1,0 -112.6,0 -62.4,0 -124.8,0 -187.1,0 -18.2,0 -36.4,0 -54.6,0 -2.3,0 -2.3,3.5 0,3.5 z"
           id="path241"
           inkscape:connector-curvature="0" /></g></g><g
       id="g251"><g
         id="g249"><path
           d="m 120.5,567.4 c 37.5,0 75.1,0 112.6,0 62.4,0 124.8,0 187.1,0 18.2,0 36.4,0 54.6,0 2.3,0 2.3,-3.5 0,-3.5 -37.5,0 -75.1,0 -112.6,0 -62.4,0 -124.8,0 -187.1,0 -18.2,0 -36.4,0 -54.6,0 -2.3,0 -2.3,3.5 0,3.5 z"
           id="path247"
           inkscape:connector-curvature="0" /></g></g></g><!-- <rect x="84.3" y="361.3" class="st1" width="486.7" height="193.3"/> --><text
     class="st2 st3 st4"
     id="text255"
     style="font-size:110px;font-family:JuliusSansOne-Regular;display:none"
     x="17.5345"
     y="265.58328">STUDIO</text>
<g
     id="g269"
     transform="translate(-66.8,-167.8)"><path
       d="m 109.8,360.7 v 7 c -7.1,-4.2 -13.2,-6.3 -18.3,-6.3 -4.9,0 -9,1.5 -12.3,4.5 -3.3,3 -5,6.7 -5,11.1 0,3.2 1,6 2.9,8.6 2,2.5 6,5 12.2,7.3 6.2,2.3 10.7,4.3 13.6,5.9 2.9,1.6 5.3,3.8 7.3,6.8 2,3 3,6.8 3,11.5 0,6.3 -2.3,11.6 -6.9,15.9 -4.6,4.3 -10.2,6.5 -16.9,6.5 -6.8,0 -13.8,-2.4 -21,-7.1 V 425 c 7.9,5.8 14.8,8.7 20.6,8.7 4.8,0 8.9,-1.6 12.3,-4.7 3.3,-3.1 5,-7 5,-11.6 0,-3.5 -1,-6.6 -3.1,-9.4 -2.1,-2.8 -6.3,-5.4 -12.6,-7.8 -6.3,-2.4 -10.8,-4.4 -13.6,-5.9 -2.7,-1.5 -5,-3.6 -6.9,-6.4 -1.9,-2.8 -2.8,-6.3 -2.8,-10.6 0,-6 2.3,-11.1 6.9,-15.4 4.6,-4.2 10.2,-6.4 16.6,-6.4 6.4,0 12.7,1.7 19,5.2 z"
       id="path257"
       inkscape:connector-curvature="0" /><path
       d="m 196.8,356.6 v 5.3 h -30.7 v 76.6 h -6.4 V 361.9 H 129 v -5.3 z"
       id="path259"
       inkscape:connector-curvature="0" /><path
       d="m 277.6,356.6 h 6.3 v 44.6 c 0,12.2 -3.2,21.7 -9.6,28.3 -6.4,6.6 -14.6,10 -24.7,10 -10.1,0 -18.3,-3.3 -24.7,-9.8 -6.4,-6.6 -9.6,-15.5 -9.6,-27 v -46.1 h 6.4 v 45.9 c 0,9.8 2.6,17.4 7.8,22.9 5.2,5.5 11.9,8.3 20.1,8.3 8.3,0 15,-2.8 20.2,-8.3 5.2,-5.6 7.8,-13.5 7.8,-23.7 z"
       id="path261"
       inkscape:connector-curvature="0" /><path
       d="m 311.5,356.6 h 28.7 c 14.5,0 25.6,3.8 33.2,11.4 7.6,7.6 11.5,17.5 11.5,29.5 0,11.8 -3.8,21.6 -11.3,29.3 -7.6,7.7 -18.3,11.6 -32.2,11.6 h -29.8 v -81.8 z m 6.3,5.2 v 71.3 h 23.1 c 10.6,0 19.4,-3.3 26.5,-9.8 7.1,-6.5 10.6,-15.1 10.6,-25.9 0,-10.5 -3.5,-19.1 -10.4,-25.7 -7,-6.6 -16,-10 -27,-10 h -22.8 z"
       id="path263"
       inkscape:connector-curvature="0" /><path
       d="m 417,356.6 v 81.9 h -6.3 v -81.9 z"
       id="path265"
       inkscape:connector-curvature="0" /><path
       d="m 486,355.5 c 12.1,0 22.4,4.1 30.8,12.2 8.4,8.1 12.6,18.1 12.6,29.8 0,11.7 -4.2,21.6 -12.6,29.7 -8.4,8.1 -18.7,12.2 -30.8,12.2 -12.1,0 -22.3,-4.1 -30.7,-12.2 -8.4,-8.1 -12.6,-18.1 -12.6,-29.7 0,-11.7 4.2,-21.7 12.6,-29.8 8.4,-8.1 18.6,-12.2 30.7,-12.2 z m 0.3,78.1 c 10.2,0 18.8,-3.5 25.8,-10.5 7,-7 10.5,-15.5 10.5,-25.6 0,-10.2 -3.5,-18.7 -10.5,-25.7 -7,-7 -15.6,-10.5 -25.8,-10.5 -10.2,0 -18.9,3.5 -26,10.5 -7.1,7 -10.6,15.5 -10.6,25.7 0,10.1 3.5,18.7 10.6,25.6 7.1,7 15.7,10.5 26,10.5 z"
       id="path267"
       inkscape:connector-curvature="0" /></g></svg>