<svg xmlns="http://www.w3.org/2000/svg" xmlns:xlink="http://www.w3.org/1999/xlink"><symbol id="icon-facebook" viewBox="0 0 290 290">
<path d="M205.807,0h-15.694c-43.62,0-79.107,35.488-79.107,79.108v33.386H84.193c-2.761,0-5,2.239-5,5v40c0,2.761,2.239,5,5,5
	h26.811V285c0,2.761,2.239,5,5,5h40c2.761,0,5-2.239,5-5V162.494h39.786c2.761,0,5-2.239,5-5v-40c0-2.761-2.239-5-5-5h-39.786
	V79.108c0-16.05,13.058-29.108,29.107-29.108h15.694c2.761,0,5-2.239,5-5V5C210.807,2.239,208.568,0,205.807,0z"/>
<g>
</g>
<g>
</g>
<g>
</g>
<g>
</g>
<g>
</g>
<g>
</g>
<g>
</g>
<g>
</g>
<g>
</g>
<g>
</g>
<g>
</g>
<g>
</g>
<g>
</g>
<g>
</g>
<g>
</g>
</symbol><symbol id="icon-mail" viewBox="0 0 550.795 550.795">
<g>
	<g>
		<path d="M501.613,491.782c12.381,0,23.109-4.088,32.229-12.16L377.793,323.567c-3.744,2.681-7.373,5.288-10.801,7.767
			c-11.678,8.604-21.156,15.318-28.434,20.129c-7.277,4.822-16.959,9.737-29.045,14.755c-12.094,5.024-23.361,7.528-33.813,7.528
			h-0.306h-0.306c-10.453,0-21.72-2.503-33.813-7.528c-12.093-5.018-21.775-9.933-29.045-14.755
			c-7.277-4.811-16.75-11.524-28.434-20.129c-3.256-2.387-6.867-5.006-10.771-7.809L16.946,479.622
			c9.119,8.072,19.854,12.16,32.234,12.16H501.613z"/>
		<path d="M31.047,225.299C19.37,217.514,9.015,208.598,0,198.555V435.98l137.541-137.541
			C110.025,279.229,74.572,254.877,31.047,225.299z"/>
		<path d="M520.059,225.299c-41.865,28.336-77.447,52.73-106.75,73.195l137.486,137.492V198.555
			C541.98,208.396,531.736,217.306,520.059,225.299z"/>
		<path d="M501.613,59.013H49.181c-15.784,0-27.919,5.33-36.42,15.979C4.253,85.646,0.006,98.97,0.006,114.949
			c0,12.907,5.636,26.892,16.903,41.959c11.267,15.061,23.256,26.891,35.961,35.496c6.965,4.921,27.969,19.523,63.012,43.801
			c18.917,13.109,35.368,24.535,49.505,34.395c12.05,8.396,22.442,15.667,31.022,21.701c0.985,0.691,2.534,1.799,4.59,3.269
			c2.215,1.591,5.018,3.61,8.476,6.107c6.659,4.816,12.191,8.709,16.597,11.683c4.4,2.975,9.731,6.298,15.985,9.988
			c6.249,3.685,12.143,6.456,17.675,8.299c5.533,1.842,10.655,2.766,15.367,2.766h0.306h0.306c4.711,0,9.834-0.924,15.368-2.766
			c5.531-1.843,11.42-4.608,17.674-8.299c6.248-3.69,11.572-7.02,15.986-9.988c4.406-2.974,9.938-6.866,16.598-11.683
			c3.451-2.497,6.254-4.517,8.469-6.102c2.057-1.476,3.605-2.577,4.596-3.274c6.684-4.651,17.1-11.892,31.104-21.616
			c25.482-17.705,63.01-43.764,112.742-78.281c14.957-10.447,27.453-23.054,37.496-37.803c10.025-14.749,15.051-30.22,15.051-46.408
			c0-13.525-4.873-25.098-14.598-34.737C526.461,63.829,514.932,59.013,501.613,59.013z"/>
	</g>
</g>
<g>
</g>
<g>
</g>
<g>
</g>
<g>
</g>
<g>
</g>
<g>
</g>
<g>
</g>
<g>
</g>
<g>
</g>
<g>
</g>
<g>
</g>
<g>
</g>
<g>
</g>
<g>
</g>
<g>
</g>
</symbol><symbol id="icon-master" viewBox="0 0 503.163 503.163">
<g>
	<g>
		<path d="M493.803,436.046L242.219,184.462c-4.16-4.16-10.923-4.16-15.083,0c-4.16,4.16-4.16,10.923,0,15.083L478.72,451.128
			c4.16,4.16,4.16,10.923,0,15.083l-1.835,1.835c-4.16,4.16-10.923,4.16-15.083,0L242.219,248.462c-4.16-4.16-10.923-4.16-15.083,0
			c-4.16,4.16-4.16,10.923,0,15.083L446.699,483.15c6.251,6.229,14.443,9.344,22.635,9.344c8.213,0,16.384-3.115,22.635-9.365
			l1.835-1.835C506.283,468.814,506.283,448.526,493.803,436.046z"/>
	</g>
</g>
<g>
	<g>
		<path d="M270.869,118.2l-67.136-28.779l9.515-66.56c0.576-4.181-1.323-8.299-4.885-10.539c-3.563-2.261-8.107-2.176-11.605,0.149
			l-58.069,38.72l-58.091-38.72c-3.499-2.347-8.043-2.411-11.605-0.149c-3.563,2.24-5.483,6.357-4.885,10.517L73.6,89.443
			L6.464,118.222C2.539,119.886,0,123.747,0,128.014s2.56,8.107,6.485,9.792L73.6,166.584l-9.515,66.581
			c-0.576,4.181,1.323,8.299,4.885,10.539c3.563,2.261,8.107,2.176,11.605-0.149l58.091-38.72l58.091,38.72
			c1.792,1.195,3.84,1.792,5.909,1.792c0.085,0,0.149,0,0.213-0.021c6.187-0.064,10.88-4.693,10.88-10.667
			c0-1.579-0.341-3.051-0.939-4.395l-9.088-63.68l67.136-28.8c3.925-1.664,6.464-5.525,6.464-9.792S274.795,119.886,270.869,118.2z
			 M187.797,150.2c-4.437,1.899-7.04,6.528-6.357,11.307l7.275,51.072l-44.139-29.44c-1.792-1.195-3.84-1.792-5.909-1.792
			c-2.048,0-4.117,0.576-5.931,1.792l-44.139,29.44l7.296-51.051c0.683-4.779-1.92-9.408-6.357-11.307L37.76,128.014l51.819-22.208
			c4.437-1.899,7.04-6.528,6.357-11.307L88.64,43.448l44.139,29.44c3.584,2.389,8.256,2.389,11.84,0l44.139-29.44l-7.296,51.051
			c-0.683,4.779,1.92,9.408,6.357,11.307l51.755,22.187L187.797,150.2z"/>
	</g>
</g>
<g>
	<g>
		<path d="M139.307,10.68h-0.213c-5.888,0-10.56,4.779-10.56,10.667s4.885,10.667,10.773,10.667c5.909,0,10.667-4.779,10.667-10.667
			S145.195,10.68,139.307,10.68z"/>
	</g>
</g>
<g>
	<g>
		<path d="M245.973,53.347h-0.213c-5.888,0-10.56,4.779-10.56,10.667s4.885,10.667,10.773,10.667
			c5.909,0,10.667-4.779,10.667-10.667S251.861,53.347,245.973,53.347z"/>
	</g>
</g>
<g>
	<g>
		<path d="M32.64,53.347h-0.213c-5.888,0-10.56,4.779-10.56,10.667S26.752,74.68,32.64,74.68c5.909,0,10.667-4.779,10.667-10.667
			S38.528,53.347,32.64,53.347z"/>
	</g>
</g>
<g>
	<g>
		<path d="M139.307,224.014h-0.213c-5.888,0-10.56,4.779-10.56,10.667s4.885,10.667,10.773,10.667
			c5.909,0,10.667-4.779,10.667-10.667S145.195,224.014,139.307,224.014z"/>
	</g>
</g>
<g>
	<g>
		<path d="M32.64,181.347h-0.213c-5.888,0-10.56,4.779-10.56,10.667s4.885,10.667,10.773,10.667c5.909,0,10.667-4.779,10.667-10.667
			S38.528,181.347,32.64,181.347z"/>
	</g>
</g>
<g>
	<g>
		<path d="M391.531,344.483c-4.16-4.16-10.923-4.16-15.083,0l-21.333,21.333c-4.16,4.16-4.16,10.923,0,15.083
			c2.091,2.069,4.821,3.115,7.552,3.115s5.461-1.045,7.531-3.115l21.333-21.333C395.691,355.406,395.691,348.643,391.531,344.483z"/>
	</g>
</g>
</symbol><symbol id="icon-mix" viewBox="0 0 512 512">
<g>
	<g>
		<g>
			<path d="M0,0v512h512V0H0z M497,497H15V15h482V497z"/>
			<polygon points="472,148.172 487,148.172 487,25 436.894,25 436.894,40 472,40"/>
			<rect x="472" y="175.23" width="15" height="14.714"/>
			<rect x="472" y="223.64" width="15" height="82.36"/>
			<polygon points="57,472 40,472 40,371 25,371 25,487 57,487"/>
			<rect x="25" y="314" width="15" height="16"/>
			<polygon points="40,40 68.999,40 68.999,25 25,25 25,60.994 40,60.994"/>
			<path d="M43.755,134.165c0,8.969,3.991,17.365,10.949,23.036c5.277,4.301,11.938,6.669,18.756,6.669h11.342v271.278
				c0,6.571,2.559,12.749,7.206,17.397c4.646,4.646,10.825,7.206,17.396,7.206c13.565,0,24.602-11.037,24.602-24.602V163.87h11.341
				c16.38,0,29.706-13.326,29.706-29.706c0-6.836-2.38-13.511-6.702-18.795c-5.671-6.934-14.055-10.91-23.004-10.91h-11.341V76.816
				c0-9.909-5.897-18.805-15.022-22.665c-3.038-1.285-6.261-1.937-9.58-1.937c-13.565,0-24.602,11.037-24.602,24.602v27.643H73.461
				C57.081,104.459,43.755,117.785,43.755,134.165z M119.006,435.148c0,5.295-4.308,9.602-9.602,9.602
				c-2.565,0-4.976-0.999-6.789-2.811c-1.813-1.814-2.813-4.226-2.813-6.791V163.87h19.204V435.148z M99.803,76.816
				c0-5.294,4.307-9.602,9.602-9.602c1.3,0,2.556,0.253,3.736,0.752c3.563,1.507,5.866,4.981,5.866,8.85v27.643H99.803V76.816z
				 M73.461,119.459h11.342h49.203h11.341c4.431,0,8.583,1.971,11.393,5.406c2.167,2.65,3.313,5.866,3.313,9.3
				c0,8.109-6.597,14.706-14.706,14.706h-11.341H84.803H73.461c-3.424,0-6.634-1.14-9.28-3.297
				c-3.448-2.81-5.425-6.968-5.425-11.409C58.756,126.056,65.353,119.459,73.461,119.459z"/>
			<path d="M345.85,403.934c5.277,4.301,11.938,6.67,18.757,6.67h13.289v24.544c0,6.571,2.559,12.75,7.206,17.397
				c4.646,4.646,10.825,7.206,17.396,7.206c13.565,0,24.602-11.037,24.602-24.602v-24.544h9.394
				c16.38,0,29.705-13.326,29.705-29.706c0-6.836-2.38-13.512-6.701-18.795c-5.67-6.934-14.055-10.911-23.004-10.911H427.1V76.816
				c0-9.909-5.897-18.805-15.023-22.665c-3.037-1.285-6.261-1.937-9.579-1.937c-13.565,0-24.602,11.037-24.602,24.602v274.377
				h-13.289c-16.38,0-29.706,13.326-29.706,29.706C334.901,389.868,338.892,398.264,345.85,403.934z M412.1,435.148
				c0,5.295-4.308,9.602-9.602,9.602c-2.565,0-4.976-0.999-6.79-2.812c-1.814-1.814-2.813-4.225-2.813-6.79v-24.544H412.1V435.148z
				 M392.896,76.816c0-5.294,4.308-9.602,9.602-9.602c1.299,0,2.556,0.253,3.735,0.752c3.564,1.507,5.867,4.981,5.867,8.85v274.377
				h-19.204V76.816z M364.607,366.192h13.289H427.1h9.394c4.431,0,8.583,1.97,11.392,5.406c2.168,2.65,3.313,5.866,3.313,9.3
				c0,8.109-6.597,14.706-14.705,14.706H427.1h-49.204h-13.289c-3.425,0-6.634-1.14-9.281-3.297
				c-3.448-2.81-5.425-6.968-5.425-11.408C349.901,372.79,356.498,366.192,364.607,366.192z"/>
			<polygon points="286.103,437.098 263.451,437.098 263.451,401.755 286.103,401.755 286.103,386.755 263.451,386.755
				263.451,353.963 286.103,353.963 286.103,338.963 263.451,338.963 263.451,306.172 286.103,306.172 286.103,291.172
				263.451,291.172 263.451,258.38 286.103,258.38 286.103,243.38 263.451,243.38 263.451,210.589 286.103,210.589 286.103,195.589
				263.451,195.589 263.451,162.797 286.103,162.797 286.103,147.797 263.451,147.797 263.451,115.006 286.103,115.006
				286.103,100.006 263.451,100.006 263.451,67.214 286.103,67.214 286.103,52.214 225.799,52.214 225.799,67.214 248.451,67.214
				248.451,100.006 225.799,100.006 225.799,115.006 248.451,115.006 248.451,147.797 225.799,147.797 225.799,162.797
				248.451,162.797 248.451,195.589 225.799,195.589 225.799,210.589 248.451,210.589 248.451,243.38 225.799,243.38
				225.799,258.38 248.451,258.38 248.451,291.172 225.799,291.172 225.799,306.172 248.451,306.172 248.451,338.963
				225.799,338.963 225.799,353.963 248.451,353.963 248.451,386.755 225.799,386.755 225.799,401.755 248.451,401.755
				248.451,437.098 225.799,437.098 225.799,452.098 286.103,452.098"/>
		</g>
	</g>
</g>
</symbol><symbol id="icon-record" viewBox="0 0 512 512">
<g>
	<g>
		<circle cx="256.5" cy="217.411" r="7.5"/>
	</g>
</g>
<g>
	<g>
		<path d="M506.776,67.785c-3.321-2.876-7.718-4.167-12.065-3.54L378.963,80.912H133.037L18.761,64.457
			c-4.721-0.681-9.489,0.721-13.092,3.841C2.066,71.419,0,75.943,0,80.709v221.406c0,4.767,2.066,9.29,5.669,12.411
			c3.005,2.604,6.824,4.009,10.747,4.009c0.779,0,1.563-0.055,2.345-0.168l114.276-16.456h115.872l-0.392,131H215.5
			c-4.143,0-7.5,3.358-7.5,7.5c0,4.142,3.357,7.5,7.5,7.5h82c4.143,0,7.5-3.358,7.5-7.5c0-4.142-3.357-7.5-7.5-7.5h-33.983
			l0.392-131h115.054l115.748,16.667c0.721,0.104,1.442,0.155,2.161,0.155c3.614,0,7.135-1.296,9.904-3.695
			c3.319-2.876,5.224-7.045,5.224-11.438V79.222C512,74.83,510.096,70.661,506.776,67.785z M248,261.912v-10.761
			c2.762,0.491,5.599,0.761,8.5,0.761s5.738-0.271,8.5-0.761v10.761H248z M290,201.912v1.5c0,18.472-15.028,33.5-33.5,33.5
			s-33.5-15.028-33.5-33.5v-1.5H290z M223,186.912v-17.5c0-18.472,15.028-33.5,33.5-33.5s33.5,15.028,33.5,33.5v17.5H223z
			 M497,303.602c0,0.037,0,0.061-0.046,0.1c-0.045,0.04-0.069,0.035-0.104,0.031L387,287.915V178.679
			c0-4.107-3.164-7.688-7.269-7.811c-4.247-0.128-7.731,3.278-7.731,7.497v108.547H263.954l0.03-10h8.516c4.142,0,7.5-3.358,7.5-7.5
			v-23.593c14.895-8.287,25-24.186,25-42.407v-1.5h5.186c4.107,0,7.688-3.165,7.811-7.269c0.127-4.247-3.277-7.731-7.497-7.731H305
			v-16.686c0-26.558-21.011-48.802-47.564-49.305C230.267,120.406,208,142.358,208,169.412v17.5h-5.186
			c-4.107,0-7.688,3.165-7.811,7.269c-0.127,4.247,3.277,7.731,7.497,7.731h5.5v1.5c0,18.221,10.105,34.12,25,42.407v23.593
			c0,4.142,3.358,7.5,7.5,7.5h8.483l-0.03,10H140v-32.588c0-4.142-3.358-7.5-7.5-7.5c-4.142,0-7.5,3.358-7.5,7.5v33.59
			L16.622,303.521c-0.53,0.075-0.909-0.138-1.132-0.332c-0.224-0.194-0.49-0.538-0.49-1.074V80.709c0-0.536,0.267-0.88,0.49-1.074
			c0.191-0.166,0.497-0.348,0.915-0.348c0.069,0,0.142,0.005,0.217,0.016L125,94.91v115.754c0,4.142,3.358,7.5,7.5,7.5
			c4.142,0,7.5-3.358,7.5-7.5V95.912h232v38.478c0,4.107,3.164,7.688,7.269,7.811c4.247,0.128,7.731-3.278,7.731-7.497V94.91
			l109.85-15.818c0.035-0.004,0.06-0.009,0.104,0.031c0.046,0.04,0.046,0.063,0.046,0.1V303.602z"/>
	</g>
</g>
<g>
</g>
<g>
</g>
<g>
</g>
<g>
</g>
<g>
</g>
<g>
</g>
<g>
</g>
<g>
</g>
<g>
</g>
<g>
</g>
<g>
</g>
<g>
</g>
<g>
</g>
<g>
</g>
<g>
</g>
</symbol><symbol id="icon-telegram" viewBox="0 0 512 512">
<g>
	<g>
		<path d="M490.626,153.442c-13.697-31.292-33.236-59.158-58.073-82.819c-3.207-3.055-8.28-2.933-11.335,0.275
			c-3.054,3.206-2.931,8.28,0.275,11.333c48.024,45.751,74.473,107.464,74.473,173.769c0,132.318-107.648,239.967-239.967,239.967
			S16.033,388.318,16.033,256S123.682,16.033,256,16.033c48.336,0,94.93,14.306,134.742,41.369
			c3.661,2.489,8.647,1.538,11.137-2.122c2.489-3.662,1.538-8.648-2.123-11.137C357.274,15.265,307.565,0,256,0
			C187.62,0,123.333,26.628,74.981,74.981C26.629,123.333,0,187.62,0,256s26.629,132.667,74.981,181.019
			C123.333,485.372,187.62,512,256,512s132.667-26.628,181.019-74.981C485.371,388.667,512,324.38,512,256
			C512,220.348,504.808,185.842,490.626,153.442z"/>
	</g>
</g>
<g>
	<g>
		<path d="M372.333,108.552l-154.176,71.771c-4.014,1.868-5.753,6.638-3.884,10.652s6.638,5.755,10.65,3.885l95.106-44.274
			l-46.237,37.431l-106.107,85.896l-58.036-25.392l81.326-37.858c4.014-1.87,5.753-6.638,3.884-10.652
			c-1.868-4.014-6.639-5.755-10.65-3.885l-87.54,40.752c-4.654,2.166-7.592,6.905-7.474,12.035c0.115,5.02,3.149,9.538,7.748,11.55
			l64.802,28.35l18.979,113.873c1.168,7.041,10.702,9.046,14.613,3.075l53.836-82.171l101.811,47.512
			c8.157,3.81,17.864-2.012,18.39-10.966l14.344-243.849c0.015-0.226,0.014-0.458,0.009-0.685
			C383.567,109.927,377.471,106.176,372.333,108.552z M190.018,360.931l-12.404-74.428l126.369-102.299l-96.718,108.441
			c-0.87,0.976-1.516,2.204-1.816,3.479L190.018,360.931z M207.049,358.631l11.72-49.228l15.724,7.338L207.049,358.631z
			 M243.371,303.191l-16.967-7.917l83.469-93.586L297.8,220.116L243.371,303.191z M353.637,354.649l-95.586-44.607l107.897-164.684
			L353.637,354.649z"/>
	</g>
</g>
<g>
</g>
<g>
</g>
<g>
</g>
<g>
</g>
<g>
</g>
<g>
</g>
<g>
</g>
<g>
</g>
<g>
</g>
<g>
</g>
<g>
</g>
<g>
</g>
<g>
</g>
<g>
</g>
<g>
</g>
</symbol><symbol id="icon-vkontakte" viewBox="0 0 363.301 363.301">
<path d="M347.506,240.442c-7.91-9.495-16.899-18.005-25.592-26.235c-3.091-2.927-6.287-5.953-9.368-8.962
	c-8.845-8.648-9.167-11.897-2.164-21.72c4.845-6.771,9.982-13.551,14.95-20.108c4.506-5.949,9.166-12.101,13.632-18.273l0.917-1.269
	c8.536-11.811,17.364-24.024,22.062-38.757c1.22-3.887,2.501-9.607-0.428-14.39c-2.927-4.779-8.605-6.237-12.622-6.918
	c-1.987-0.337-3.96-0.383-5.791-0.383l-55.901-0.04l-0.462-0.004c-8.452,0-14.148,3.983-17.412,12.178
	c-3.116,7.83-6.539,16.168-10.445,24.096c-7.773,15.787-17.645,33.97-31.93,49.135l-0.604,0.645
	c-1.687,1.813-3.598,3.866-4.995,3.866c-0.214,0-0.447-0.041-0.711-0.124c-2.959-1.153-4.945-8.316-4.855-11.648
	c0.001-0.046,0.002-0.092,0.002-0.138l-0.039-64.61c0-0.224-0.016-0.446-0.045-0.668c-1.422-10.503-4.572-17.041-16.474-19.372
	c-0.316-0.063-0.639-0.094-0.961-0.094h-58.126c-9.47,0-14.688,3.849-19.593,9.61c-1.324,1.54-4.08,4.746-2.714,8.635
	c1.386,3.947,5.885,4.791,7.35,5.065c7.272,1.384,11.371,5.832,12.532,13.604c2.027,13.496,2.276,27.901,0.784,45.334
	c-0.416,4.845-1.239,8.587-2.595,11.784c-0.315,0.746-1.432,3.181-2.571,3.182c-0.362,0-1.409-0.142-3.316-1.456
	c-4.509-3.089-7.808-7.497-11.654-12.942c-13.084-18.491-24.065-38.861-33.575-62.288c-3.527-8.624-10.114-13.452-18.556-13.594
	c-9.276-0.141-17.686-0.209-25.707-0.209c-8.764,0-16.889,0.081-24.823,0.246C8.914,83.74,4.216,85.776,1.744,89.676
	c-2.476,3.903-2.315,9.03,0.479,15.236c22.366,49.723,42.645,85.876,65.755,117.228c16.193,21.938,32.435,37.123,51.109,47.784
	c19.674,11.255,41.722,16.727,67.402,16.727c2.911,0,5.921-0.071,8.956-0.213c14.922-0.727,20.458-6.128,21.158-20.657
	c0.333-7.425,1.145-15.212,4.795-21.853c2.304-4.184,4.452-4.184,5.158-4.184c1.36,0,3.046,0.626,4.857,1.799
	c3.248,2.12,6.033,4.96,8.316,7.441c2.149,2.357,4.274,4.738,6.401,7.12c4.59,5.141,9.336,10.456,14.294,15.497
	c10.852,11.041,22.807,15.897,36.538,14.843h51.252c0.109,0,0.219-0.004,0.328-0.011c5.107-0.337,9.53-3.17,12.135-7.772
	c3.227-5.701,3.162-12.974-0.174-19.46C356.718,251.867,351.808,245.601,347.506,240.442z"/>
<g>
</g>
<g>
</g>
<g>
</g>
<g>
</g>
<g>
</g>
<g>
</g>
<g>
</g>
<g>
</g>
<g>
</g>
<g>
</g>
<g>
</g>
<g>
</g>
<g>
</g>
<g>
</g>
<g>
</g>
</symbol>
</svg>
